# xmcd CD database file
#
# Track frame offsets:
#	150
#	12957
#	25245
#	39300
#	52047
#	64250
#	76255
#	89515
#	102887
#	116215
#	141117
#
# Disc length: 2213 seconds
#
# Revision: 4
# Processed by: cddbd v1.5.2PL0 Copyright (c) Steve Scherf et al.
# Submitted via: CDex 1.51
#
DISCID=8f08a30b
DTITLE=Louis Jordan - The Best of Louis Jordan  [de 1942 à 1953]
DYEAR=1900
DGENRE=Jazz
TTITLE0=Let The Good Times Roll  [1946]
TTITLE1=Choo Choo Ch-Boogie  [1946]
TTITLE2=Ain't Nobody Here But Us Chickens  [1946]
TTITLE3=Buzz Me Blues  [1945]
TTITLE4=Is You Is Or Is You Ain't (My Baby)  [1943]
TTITLE5=Caldonia  [1945]
TTITLE6=Five Guys Named Moe  [1942]
TTITLE7=Don't Let The Sun Catch You Cryin'  [1946]
TTITLE8=I Want You To Be My Baby  [1953]
TTITLE9=Blue Light Boogie, Parts 1 and 2  [1950]
TTITLE10=Saturday Night Fish Fry, Parts 1 and 2  [1949]
EXTD=
EXTT0=
EXTT1=
EXTT2=
EXTT3=
EXTT4=
EXTT5=
EXTT6=
EXTT7=
EXTT8=
EXTT9=
EXTT10=
PLAYORDER=
